<svg xmlns="http://www.w3.org/2000/svg"  viewBox="0 0 80 80" width="80px" height="80px"><path fill="#fff" d="M12.5 75.5L12.5 4.5 49.8 4.5 67.5 22.2 67.5 75.5z"/><path fill="#c76443" d="M49.6,5L67,22.4V75H13V5H49.6 M50,4H12v72h56V22L50,4L50,4z"/><path fill="#ffd9cc" d="M49.5 22.5L49.5 4.5 49.8 4.5 67.5 22.2 67.5 22.5z"/><path fill="#cf6846" d="M50,5.4L66.6,22H50V5.4 M50,4h-1v19h19v-1L50,4L50,4z"/><path fill="#c76443" d="M33,62c-0.6,0-1-0.4-1-1V41c0-0.6,0.4-1,1-1s1,0.4,1,1v20C34,61.6,33.6,62,33,62z"/><path fill="#c76443" d="M41,52c-4.7,0-9-5.2-9-11c0-0.6,0.4-1,1-1s1,0.4,1,1c0,4.5,3.5,9,7,9c3.8,0,7-3.7,7-8 c0-4.3-3.2-8-7-8h-8c-0.6,0-1-0.4-1-1s0.4-1,1-1h8c4.9,0,9,4.6,9,10C50,47.4,45.9,52,41,52z"/></svg>